# xmcd
#
# Track frame offsets: 
#        150
#        25568
#        50040
#        81295
#        118353
#        145494
#        165413
#        182226
#        206142
#        233797
#
# Disc length: 3454 seconds
#
# Revision: 2
# Processed by: cddbd v1.5.2PL0 Copyright (c) Steve Scherf et al.
# Submitted via: ExactAudioCopyFreeDBPlugin 1.0
#
DISCID=8e0d7c0a
DTITLE=Vieux Farka Touré - Samba {US,Six Degrees Records,657036-126626
DTITLE=}
DYEAR=2017
DGENRE=Folk, World, and Country
TTITLE0=Bonheur
TTITLE1=Mariam (feat. Idan Raichel)
TTITLE2=Ba Kaitere
TTITLE3=Samba Si Kairi
TTITLE4=Homafu Wawa
TTITLE5=Maya (feat. Idan Raichel)
TTITLE6=Nature
TTITLE7=Reconnaissance
TTITLE8=Ouaga
TTITLE9=Ni Negaba
EXTD=
EXTT0=
EXTT1=
EXTT2=
EXTT3=
EXTT4=
EXTT5=
EXTT6=
EXTT7=
EXTT8=
EXTT9=
PLAYORDER=
